<svg xmlns="http://www.w3.org/2000/svg" width="78.197" height="140"><g fill="none" stroke="#000" stroke-linecap="round" stroke-linejoin="round" stroke-width="4"><path d="M64.861 47.011A11.4 11.4 0 0 1 76.2 58.471v68.069A11.4 11.4 0 0 1 64.861 138H13.336A11.4 11.4 0 0 1 2 126.54V58.471a11.4 11.4 0 0 1 11.336-11.46h18.282M16.962 58.278V138"/><path d="M39.051 16.003h21.172v67.932H39.051z"/><path d="M39.051 83.192h21.172v9.036a10.586 10.586 0 0 1-10.586 10.586h0a10.587 10.587 0 0 1-10.586-10.586h0v-9.036zM60.223 21.621H39.051v-9.035A10.587 10.587 0 0 1 49.637 2h0a10.586 10.586 0 0 1 10.586 10.586h0v9.035zM49.637 108.983v-5.575M60.223 12.7h0a9.9 9.9 0 0 1 9.851 9.959v16.682"/></g></svg>